<svg width="25" height="23" viewBox="0 0 25 23" fill="none" xmlns="http://www.w3.org/2000/svg">
<path d="M1.38889 3.64292C0.995371 3.64292 0.66574 3.49206 0.4 3.19034C0.13426 2.88863 0.000925924 2.51568 0 2.07149C-0.000925924 1.6273 0.132408 1.25435 0.4 0.952632C0.667592 0.650918 0.997223 0.500061 1.38889 0.500061H23.6111C24.0046 0.500061 24.3347 0.650918 24.6014 0.952632C24.868 1.25435 25.0009 1.6273 25 2.07149C24.9991 2.51568 24.8657 2.88915 24.6 3.19192C24.3343 3.49468 24.0046 3.64501 23.6111 3.64292H1.38889ZM1.38889 22.5C0.995371 22.5 0.66574 22.3492 0.4 22.0475C0.13426 21.7458 0.000925924 21.3728 0 20.9286C-0.000925924 20.4844 0.132408 20.1115 0.4 19.8098C0.667592 19.508 0.997223 19.3572 1.38889 19.3572H23.6111C24.0046 19.3572 24.3347 19.508 24.6014 19.8098C24.868 20.1115 25.0009 20.4844 25 20.9286C24.9991 21.3728 24.8657 21.7463 24.6 22.049C24.3343 22.3518 24.0046 22.5021 23.6111 22.5H1.38889ZM1.38889 13.0715C0.995371 13.0715 0.66574 12.9206 0.4 12.6189C0.13426 12.3172 0.000925924 11.9442 0 11.5001C-0.000925924 11.0559 0.132408 10.6829 0.4 10.3812C0.667592 10.0795 0.997223 9.92862 1.38889 9.92862H23.6111C24.0046 9.92862 24.3347 10.0795 24.6014 10.3812C24.868 10.6829 25.0009 11.0559 25 11.5001C24.9991 11.9442 24.8657 12.3177 24.6 12.6205C24.3343 12.9232 24.0046 13.0736 23.6111 13.0715H1.38889Z" fill="white"/>
</svg>
