<svg width="25" height="24" viewBox="0 0 25 24" fill="none" xmlns="http://www.w3.org/2000/svg">
<path d="M23.4596 12.1839C23.463 14.2061 22.8244 16.1831 21.6257 17.861C20.6372 19.2497 19.3005 20.3876 17.7339 21.1741C16.1674 21.9606 14.4191 22.3713 12.6439 22.3701C10.8686 22.3713 9.12042 21.9606 7.55383 21.1741C5.98725 20.3876 4.65058 19.2497 3.66205 17.861C2.72076 16.5395 2.12129 15.0287 1.91171 13.4497C1.70213 11.8707 1.88827 10.2674 2.45519 8.7684C3.02212 7.26937 3.95407 5.91627 5.17633 4.81759C6.39859 3.7189 7.87716 2.90519 9.49352 2.44169C11.1099 1.97818 12.8191 1.87778 14.4841 2.14851C16.149 2.41925 17.7235 3.05361 19.0813 4.00072C20.439 4.94784 21.5423 6.18137 22.3026 7.60244C23.063 9.02351 23.4592 10.5926 23.4596 12.1839Z" stroke="#F4F5F5" stroke-width="3"/>
</svg>
