<svg width="29" height="25" viewBox="0 0 29 25" fill="none" xmlns="http://www.w3.org/2000/svg">
<path d="M20.4993 1C18.1529 1 16.0704 1.91193 14.6595 3.47934C13.2486 1.91193 11.1661 1 8.81968 1C6.776 1.00243 4.81673 1.80286 3.37163 3.2257C1.92653 4.64854 1.11359 6.57762 1.11111 8.58982C1.11111 16.9087 13.4693 23.5556 13.9949 23.835C14.1992 23.9433 14.4275 24 14.6595 24C14.8915 24 15.1198 23.9433 15.3241 23.835C15.8497 23.5556 28.2079 16.9087 28.2079 8.58982C28.2054 6.57762 27.3925 4.64854 25.9474 3.2257C24.5023 1.80286 22.543 1.00243 20.4993 1ZM19.8581 17.371C18.2314 18.7301 16.4926 19.9533 14.6595 21.0279C12.8264 19.9533 11.0876 18.7301 9.46089 17.371C6.92991 15.2332 3.91423 11.973 3.91423 8.58982C3.91423 7.30885 4.43105 6.08035 5.351 5.17457C6.27095 4.2688 7.51867 3.75993 8.81968 3.75993C10.8987 3.75993 12.6389 4.84091 13.3619 6.58197C13.4671 6.83577 13.6467 7.05297 13.8778 7.20586C14.109 7.35875 14.3811 7.4404 14.6595 7.4404C14.9379 7.4404 15.21 7.35875 15.4412 7.20586C15.6723 7.05297 15.8519 6.83577 15.9571 6.58197C16.6801 4.84091 18.4203 3.75993 20.4993 3.75993C21.8003 3.75993 23.0481 4.2688 23.968 5.17457C24.888 6.08035 25.4048 7.30885 25.4048 8.58982C25.4048 11.973 22.3891 15.2332 19.8581 17.371Z" fill="#F4F5F5" stroke="#F4F5F5"/>
</svg>
