<svg width="20" height="19" viewBox="0 0 20 19" fill="none" xmlns="http://www.w3.org/2000/svg">
<path d="M10.8455 3.78844C10.8455 4.08862 10.7189 4.37649 10.4935 4.58875C10.2681 4.801 9.96247 4.92025 9.64375 4.92025V7.18385C10.5999 7.18385 11.5169 6.82612 12.193 6.18936C12.8692 5.5526 13.249 4.68896 13.249 3.78844H10.8455ZM9.64375 4.92025C9.32503 4.92025 9.01936 4.801 8.79399 4.58875C8.56862 4.37649 8.44201 4.08862 8.44201 3.78844H6.03852C6.03852 4.68896 6.41835 5.5526 7.09447 6.18936C7.77058 6.82612 8.68758 7.18385 9.64375 7.18385V4.92025ZM8.44201 3.78844C8.44201 3.48827 8.56862 3.20039 8.79399 2.98814C9.01936 2.77588 9.32503 2.65664 9.64375 2.65664V0.393036C8.68758 0.393036 7.77058 0.750765 7.09447 1.38753C6.41835 2.02429 6.03852 2.88793 6.03852 3.78844H8.44201ZM9.64375 2.65664C9.96247 2.65664 10.2681 2.77588 10.4935 2.98814C10.7189 3.20039 10.8455 3.48827 10.8455 3.78844H13.249C13.249 2.88793 12.8692 2.02429 12.193 1.38753C11.5169 0.750765 10.5999 0.393036 9.64375 0.393036V2.65664ZM1.43103 13.8117L0.278555 13.4891L0.0922852 14.0811L0.518905 14.5485L1.43103 13.8117ZM17.8565 13.8117L18.7698 14.5485L19.1952 14.0811L19.0089 13.4891L17.8565 13.8117ZM6.03852 11.7111H13.249V9.44746H6.03852V11.7111ZM6.03852 9.44746C4.7443 9.44708 3.48455 9.84026 2.44672 10.5685C1.40888 11.2967 0.648441 12.3211 0.278555 13.4891L2.5823 14.1343C2.80459 13.4337 3.26103 12.8195 3.88375 12.3829C4.50647 11.9463 5.26219 11.7107 6.03852 11.7111V9.44746ZM9.64375 16.2383C8.25632 16.2397 6.88508 15.9577 5.62465 15.4115C4.36422 14.8654 3.24463 14.0682 2.34315 13.0749L0.518905 14.5485C1.646 15.7895 3.04543 16.7856 4.62074 17.4681C6.19604 18.1506 7.90975 18.5033 9.64375 18.5019V16.2383ZM13.249 11.7111C14.8798 11.7111 16.2606 12.7319 16.7052 14.1354L19.0089 13.4891C18.6391 12.3213 17.8777 11.297 16.8401 10.5688C15.8025 9.84061 14.543 9.44732 13.249 9.44746V11.7111ZM16.9444 13.0749C16.0429 14.0682 14.9233 14.8654 13.6629 15.4115C12.4024 15.9577 11.0312 16.2397 9.64375 16.2383V18.5019C11.3778 18.5033 13.0915 18.1506 14.6668 17.4681C16.2421 16.7856 17.6427 15.7895 18.7698 14.5485L16.9444 13.0749Z" fill="#F4F5F5"/>
</svg>
