<svg width="28" height="27" viewBox="0 0 28 27" fill="none" xmlns="http://www.w3.org/2000/svg">
<path d="M25.4 27L15.95 17.55C15.2 18.15 14.3375 18.625 13.3625 18.975C12.3875 19.325 11.35 19.5 10.25 19.5C7.525 19.5 5.219 18.556 3.332 16.668C1.445 14.78 0.501001 12.474 0.500001 9.75C0.499001 7.026 1.443 4.72 3.332 2.832C5.221 0.944 7.527 0 10.25 0C12.973 0 15.2795 0.944 17.1695 2.832C19.0595 4.72 20.003 7.026 20 9.75C20 10.85 19.825 11.8875 19.475 12.8625C19.125 13.8375 18.65 14.7 18.05 15.45L27.5 24.9L25.4 27ZM10.25 16.5C12.125 16.5 13.719 15.844 15.032 14.532C16.345 13.22 17.001 11.626 17 9.75C16.999 7.874 16.343 6.2805 15.032 4.9695C13.721 3.6585 12.127 3.002 10.25 3C8.373 2.998 6.7795 3.6545 5.4695 4.9695C4.1595 6.2845 3.503 7.878 3.5 9.75C3.497 11.622 4.1535 13.216 5.4695 14.532C6.7855 15.848 8.379 16.504 10.25 16.5Z" fill="white"/>
</svg>
