<svg width="14" height="13" viewBox="0 0 14 13" fill="none" xmlns="http://www.w3.org/2000/svg">
<path d="M3.90654 13C4.22415 13 4.44013 12.8366 4.82124 12.4973L7.01908 10.5684H11.0908C12.9837 10.5684 14 9.53166 14 7.69067V2.87772C14 1.03674 12.9837 0 11.0908 0H2.90928C1.02268 0 0 1.03044 0 2.87772V7.69067C0 9.53793 1.02268 10.5684 2.90928 10.5684H3.21415V12.202C3.21415 12.6858 3.46824 13 3.90654 13ZM4.16696 11.8502V10.028C4.16696 9.68873 4.03993 9.55678 3.69056 9.55678H2.91562C1.62614 9.55678 1.02268 8.90962 1.02268 7.6844V2.87772C1.02268 1.6525 1.62614 1.01159 2.91562 1.01159H11.0908C12.3739 1.01159 12.9774 1.6525 12.9774 2.87772V7.6844C12.9774 8.90962 12.3739 9.55678 11.0908 9.55678H6.97463C6.62526 9.55678 6.44104 9.60704 6.19964 9.8521L4.16696 11.8502ZM3.7668 3.68825H10.2333C10.4365 3.68825 10.6017 3.53118 10.6017 3.32384C10.6017 3.12278 10.4365 2.96568 10.2333 2.96568H3.7668C3.56353 2.96568 3.40471 3.12278 3.40471 3.32384C3.40471 3.53118 3.56353 3.68825 3.7668 3.68825ZM3.7668 5.7303H10.2333C10.4365 5.7303 10.6017 5.57323 10.6017 5.36587C10.6017 5.17111 10.4365 5.00146 10.2333 5.00146H3.7668C3.56353 5.00146 3.40471 5.17111 3.40471 5.36587C3.40471 5.57323 3.56353 5.7303 3.7668 5.7303ZM3.7668 7.77863H7.97189C8.17516 7.77863 8.34032 7.62156 8.34032 7.42049C8.34032 7.21316 8.17516 7.04979 7.97189 7.04979H3.7668C3.56353 7.04979 3.40471 7.21316 3.40471 7.42049C3.40471 7.62156 3.56353 7.77863 3.7668 7.77863Z" fill="black"/>
</svg>
