<svg width="29" height="25" viewBox="0 0 29 25" fill="none" xmlns="http://www.w3.org/2000/svg">
<path d="M20.3882 1C18.0418 1 15.9593 1.91193 14.5484 3.47934C13.1375 1.91193 11.055 1 8.70857 1C6.66489 1.00243 4.70562 1.80286 3.26052 3.2257C1.81542 4.64854 1.00247 6.57762 1 8.58982C1 16.9087 13.3582 23.5556 13.8838 23.835C14.0881 23.9433 14.3164 24 14.5484 24C14.7804 24 15.0087 23.9433 15.213 23.835C15.7385 23.5556 28.0968 16.9087 28.0968 8.58982C28.0943 6.57762 27.2814 4.64854 25.8363 3.2257C24.3912 1.80286 22.4319 1.00243 20.3882 1ZM19.747 17.371C18.1203 18.7301 16.3814 19.9533 14.5484 21.0279C12.7153 19.9533 10.9764 18.7301 9.34978 17.371C6.8188 15.2332 3.80311 11.973 3.80311 8.58982C3.80311 7.30885 4.31994 6.08035 5.23989 5.17457C6.15984 4.2688 7.40756 3.75993 8.70857 3.75993C10.7875 3.75993 12.5278 4.84091 13.2508 6.58197C13.356 6.83577 13.5356 7.05297 13.7667 7.20586C13.9978 7.35875 14.27 7.4404 14.5484 7.4404C14.8268 7.4404 15.0989 7.35875 15.33 7.20586C15.5611 7.05297 15.7408 6.83577 15.846 6.58197C16.569 4.84091 18.3092 3.75993 20.3882 3.75993C21.6892 3.75993 22.9369 4.2688 23.8569 5.17457C24.7768 6.08035 25.2937 7.30885 25.2937 8.58982C25.2937 11.973 22.278 15.2332 19.747 17.371Z" fill="#F4F5F5" stroke="#F4F5F5"/>
</svg>
