<svg width="29" height="25" viewBox="0 0 29 25" fill="none" xmlns="http://www.w3.org/2000/svg">
<path d="M9.64291 6.99145C10.8764 8.37839 12.6439 9.17188 14.5 9.17188C16.3561 9.17188 18.1236 8.37839 19.3571 6.99145C19.5025 6.82798 19.6532 6.70865 19.7949 6.63499C19.9028 6.57896 20.092 6.5 20.4611 6.5C20.9016 6.5 21.3275 6.66485 21.7578 7.1557C22.2533 7.72096 22.5 8.46171 22.5 9C22.5 9.41955 22.3235 10.2301 21.4464 11.4826C20.5779 12.7227 19.285 14.0131 17.7637 15.2412C16.6418 16.1469 15.4984 16.9366 14.5 17.5692C13.5016 16.9366 12.3582 16.1469 11.2363 15.2412C9.71497 14.0131 8.42207 12.7227 7.55361 11.4826C6.67653 10.2301 6.5 9.41955 6.5 9C6.5 8.46171 6.74671 7.72096 7.2422 7.1557C7.67245 6.66485 8.09844 6.5 8.53889 6.5C8.90802 6.5 9.09725 6.57896 9.20508 6.63499C9.34684 6.70865 9.49754 6.82798 9.64291 6.99145Z" stroke="#475ED1" stroke-width="13" stroke-linecap="round" stroke-linejoin="round"/>
</svg>
