<svg width="38" height="21" viewBox="0 0 38 21" fill="none" xmlns="http://www.w3.org/2000/svg">
<path d="M26.7048 20.864C27.3261 20.864 27.8298 20.3603 27.8298 19.739C27.8298 19.1177 27.3261 18.614 26.7048 18.614V20.864ZM18.465 18.614C17.8437 18.614 17.34 19.1177 17.34 19.739C17.34 20.3603 17.8437 20.864 18.465 20.864V18.614ZM25.5856 19.739C25.5856 20.3603 26.0892 20.864 26.7106 20.864C27.3319 20.864 27.8356 20.3603 27.8356 19.739H25.5856ZM27.8356 11.8385C27.8356 11.2172 27.3319 10.7135 26.7106 10.7135C26.0892 10.7135 25.5856 11.2172 25.5856 11.8385H27.8356ZM26.7106 18.614C26.0892 18.614 25.5856 19.1177 25.5856 19.739C25.5856 20.3603 26.0892 20.864 26.7106 20.864V18.614ZM27.0777 20.864C27.699 20.864 28.2027 20.3603 28.2027 19.739C28.2027 19.1177 27.699 18.614 27.0777 18.614V20.864ZM33.2835 18.6143C32.6623 18.6278 32.1697 19.1421 32.1832 19.7634C32.1966 20.3846 32.7111 20.8772 33.3322 20.8637L33.2835 18.6143ZM36.6 16.2275L37.7248 16.2077C37.7238 16.1496 37.7182 16.0919 37.7083 16.0347L36.6 16.2275ZM36.945 11.6457C36.8385 11.0336 36.2559 10.6236 35.6437 10.7301C35.0316 10.8366 34.6218 11.4191 34.7281 12.0312L36.945 11.6457ZM26.7046 3.69048C26.0833 3.69048 25.5796 4.19417 25.5796 4.81548C25.5796 5.4368 26.0833 5.94048 26.7046 5.94048V3.69048ZM31.9273 4.81548V5.94051L31.9345 5.94045L31.9273 4.81548ZM35.2252 8.32698L34.1013 8.27903C34.0978 8.35967 34.1031 8.44043 34.1169 8.51993L35.2252 8.32698ZM34.7281 12.0312C34.8346 12.6434 35.4174 13.0533 36.0295 12.9468C36.6417 12.8402 37.0516 12.2577 36.945 11.6457L34.7281 12.0312ZM27.8296 4.81548C27.8296 4.19417 27.3261 3.69048 26.7046 3.69048C26.0833 3.69048 25.5796 4.19417 25.5796 4.81548H27.8296ZM25.5796 11.8385C25.5796 12.4598 26.0833 12.9635 26.7046 12.9635C27.3261 12.9635 27.8296 12.4598 27.8296 11.8385H25.5796ZM25.5796 4.81548C25.5796 5.4368 26.0833 5.94048 26.7046 5.94048C27.3261 5.94048 27.8296 5.4368 27.8296 4.81548H25.5796ZM26.7046 3.61548L25.5796 3.60828V3.61548H26.7046ZM25.1485 1.99998L25.155 0.874985H25.1485V1.99998ZM11.1306 1.99998V0.874969L11.1252 0.875L11.1306 1.99998ZM9.573 3.61248H10.698L10.698 3.60735L9.573 3.61248ZM9.573 18.125L10.698 18.1301V18.125H9.573ZM11.1306 19.7375L11.1252 20.8625H11.1306V19.7375ZM12.2289 20.8625C12.8502 20.8625 13.3539 20.3588 13.3539 19.7375C13.3539 19.1162 12.8502 18.6125 12.2289 18.6125V20.8625ZM26.7076 10.712C26.0863 10.712 25.5826 11.2157 25.5826 11.837C25.5826 12.4583 26.0863 12.962 26.7076 12.962V10.712ZM35.8395 12.962C36.4608 12.962 36.9645 12.4583 36.9645 11.837C36.9645 11.2157 36.4608 10.712 35.8395 10.712V12.962ZM1.5 3.87498C0.878679 3.87498 0.375 4.37867 0.375 4.99998C0.375 5.6213 0.878679 6.12498 1.5 6.12498V3.87498ZM6.07762 6.12498C6.69894 6.12498 7.20262 5.6213 7.20262 4.99998C7.20262 4.37867 6.69894 3.87498 6.07762 3.87498V6.12498ZM2.9625 8.37498C2.34118 8.37498 1.8375 8.87867 1.8375 9.49998C1.8375 10.1213 2.34118 10.625 2.9625 10.625V8.37498ZM5.8875 10.625C6.50881 10.625 7.0125 10.1213 7.0125 9.49998C7.0125 8.87867 6.50881 8.37498 5.8875 8.37498V10.625ZM3.85462 12.875C3.23331 12.875 2.72962 13.3787 2.72962 14C2.72962 14.6213 3.23331 15.125 3.85462 15.125V12.875ZM5.8875 15.125C6.50881 15.125 7.0125 14.6213 7.0125 14C7.0125 13.3787 6.50881 12.875 5.8875 12.875V15.125ZM26.7048 18.614H18.465V20.864H26.7048V18.614ZM27.8356 19.739V11.8385H25.5856V19.739H27.8356ZM26.7106 20.864H27.0777V18.614H26.7106V20.864ZM33.3322 20.8637C35.8314 20.8095 37.7686 18.7011 37.7248 16.2077L35.4751 16.2473C35.4982 17.5556 34.4908 18.588 33.2835 18.6143L33.3322 20.8637ZM37.7083 16.0347L36.945 11.6457L34.7281 12.0312L35.4916 16.4202L37.7083 16.0347ZM26.7046 5.94048L31.9273 5.94051V3.69048H26.7046V5.94048ZM31.9345 5.94045C32.5152 5.9367 33.0783 6.17703 33.4905 6.61595L35.1306 5.07561C34.2961 4.18713 33.1363 3.68264 31.92 3.69051L31.9345 5.94045ZM33.4905 6.61595C33.9037 7.05596 34.1278 7.65678 34.1013 8.27903L36.3492 8.37494C36.4012 7.1559 35.964 5.96298 35.1306 5.07561L33.4905 6.61595ZM34.1169 8.51993L34.7281 12.0312L36.945 11.6457L36.3336 8.13404L34.1169 8.51993ZM25.5796 4.81548V11.8385H27.8296V4.81548H25.5796ZM27.8296 4.81548V3.61548H25.5796V4.81548H27.8296ZM27.8296 3.62268C27.8343 2.90726 27.5617 2.21387 27.0633 1.6965L25.4428 3.25742C25.5282 3.34608 25.5804 3.47183 25.5796 3.60828L27.8296 3.62268ZM27.0633 1.6965C26.5641 1.17816 25.8783 0.879125 25.155 0.874985L25.1422 3.12497C25.2496 3.12558 25.3584 3.16974 25.4428 3.25742L27.0633 1.6965ZM25.1485 0.874985L11.1306 0.874969V3.12498H25.1485V0.874985ZM11.1252 0.875C10.4025 0.87845 9.7167 1.17645 9.217 1.69379L10.8353 3.25697C10.9198 3.16949 11.0286 3.12548 11.1359 3.12497L11.1252 0.875ZM9.217 1.69379C8.71824 2.21013 8.44474 2.90264 8.44801 3.61763L10.698 3.60735C10.6974 3.47097 10.7499 3.34542 10.8353 3.25697L9.217 1.69379ZM8.448 3.61248V18.125H10.698L10.698 3.61248H8.448ZM8.44801 18.1199C8.44474 18.8348 8.71824 19.5273 9.217 20.0436L10.8353 18.4805C10.7499 18.392 10.6974 18.2664 10.698 18.1301L8.44801 18.1199ZM9.217 20.0436C9.7167 20.561 10.4025 20.859 11.1252 20.8625L11.1359 18.6125C11.0286 18.612 10.9198 18.5679 10.8353 18.4805L9.217 20.0436ZM11.1306 20.8625H12.2289V18.6125H11.1306V20.8625ZM26.7076 12.962H35.8395V10.712H26.7076V12.962ZM1.5 6.12498H6.07762V3.87498H1.5V6.12498ZM2.9625 10.625H5.8875V8.37498H2.9625V10.625ZM3.85462 15.125H5.8875V12.875H3.85462V15.125Z" fill="#5A3DE6"/>
</svg>
