<svg width="31" height="23" viewBox="0 0 31 23" fill="none" xmlns="http://www.w3.org/2000/svg">
<path d="M18.2432 18.7692V11.5M18.2432 18.7692H11.1892M18.2432 18.7692H19.8108M18.2432 4.23077V3C18.2432 1.89543 17.3478 1 16.2432 1H3C1.89543 1 1 1.89543 1 3V16.7692C1 17.8738 1.89543 18.7692 3 18.7692H4.91892M18.2432 4.23077H23.8422C24.7096 4.23077 25.4782 4.78992 25.7451 5.61524L27.6486 11.5M18.2432 4.23077V11.5M18.2432 11.5H27.6486M27.6486 11.5L29.154 16.1537C29.5718 17.4454 28.6087 18.7692 27.251 18.7692H26.0811M4.91892 18.7692V19C4.91892 20.6569 6.26206 22 7.91892 22H8.18919C9.84604 22 11.1892 20.6569 11.1892 19V18.7692M4.91892 18.7692V18.5385C4.91892 16.8816 6.26206 15.5385 7.91892 15.5385H8.18919C9.84604 15.5385 11.1892 16.8816 11.1892 18.5385V18.7692M26.0811 18.7692V19C26.0811 20.6569 24.7379 22 23.0811 22H22.8108C21.154 22 19.8108 20.6569 19.8108 19V18.7692M26.0811 18.7692V18.5385C26.0811 16.8816 24.7379 15.5385 23.0811 15.5385H22.8108C21.154 15.5385 19.8108 16.8816 19.8108 18.5385V18.7692" stroke="#5A3DE6" stroke-width="2"/>
</svg>
