<svg width="31" height="31" viewBox="0 0 31 31" fill="none" xmlns="http://www.w3.org/2000/svg">
<path d="M9.18133 28.9219C9.83006 28.9219 10.2712 28.5846 11.0496 27.884L15.5388 23.9009H23.8553C27.7217 23.9009 29.7974 21.7601 29.7974 17.9586V8.02031C29.7974 4.21882 27.7217 2.07805 23.8553 2.07805H7.14441C3.29099 2.07805 1.20215 4.20581 1.20215 8.02031V17.9586C1.20215 21.7731 3.29099 23.9009 7.14441 23.9009H7.76712V27.2742C7.76712 28.2732 8.28609 28.9219 9.18133 28.9219ZM9.71325 26.5476V22.7851C9.71325 22.0845 9.4538 21.812 8.74019 21.812H7.15736C4.52358 21.812 3.291 20.4757 3.291 17.9457V8.02031C3.291 5.49032 4.52358 4.1669 7.15736 4.1669H23.8553C26.476 4.1669 27.7087 5.49032 27.7087 8.02031V17.9457C27.7087 20.4757 26.476 21.812 23.8553 21.812H15.448C14.7344 21.812 14.3581 21.9158 13.865 22.4218L9.71325 26.5476ZM8.89591 9.69398H22.1038C22.519 9.69398 22.8563 9.36964 22.8563 8.94151C22.8563 8.52633 22.519 8.20194 22.1038 8.20194H8.89591C8.48073 8.20194 8.15633 8.52633 8.15633 8.94151C8.15633 9.36964 8.48073 9.69398 8.89591 9.69398ZM8.89591 13.9106H22.1038C22.519 13.9106 22.8563 13.5863 22.8563 13.1581C22.8563 12.7559 22.519 12.4056 22.1038 12.4056H8.89591C8.48073 12.4056 8.15633 12.7559 8.15633 13.1581C8.15633 13.5863 8.48073 13.9106 8.89591 13.9106ZM8.89591 18.1403H17.4849C17.9001 18.1403 18.2374 17.8159 18.2374 17.4007C18.2374 16.9726 17.9001 16.6353 17.4849 16.6353H8.89591C8.48073 16.6353 8.15633 16.9726 8.15633 17.4007C8.15633 17.8159 8.48073 18.1403 8.89591 18.1403Z" fill="#F4F4F4"/>
</svg>
