<svg width="31" height="27" viewBox="0 0 31 27" fill="none" xmlns="http://www.w3.org/2000/svg">
<path d="M16.4462 13.641C16.4462 12.9286 15.8686 12.351 15.1562 12.351C14.4438 12.351 13.8662 12.9286 13.8662 13.641H16.4462ZM15.1562 25.54H13.8662C13.8662 25.9683 14.0788 26.3687 14.4336 26.6086C14.7885 26.8486 15.2393 26.8967 15.6368 26.7371L15.1562 25.54ZM25.0359 21.5737L25.5165 22.7708C26.0055 22.5745 26.3259 22.1005 26.3259 21.5737H25.0359ZM26.3259 13.328C26.3259 12.6156 25.7483 12.038 25.0359 12.038C24.3235 12.038 23.7459 12.6156 23.7459 13.328H26.3259ZM15.9395 12.6161C15.3735 12.1835 14.5638 12.2917 14.1313 12.8577C13.6987 13.4238 13.8069 14.2334 14.3729 14.666L15.9395 12.6161ZM18.6788 16.3328L17.8955 17.3578C18.279 17.6509 18.794 17.7054 19.2304 17.499L18.6788 16.3328ZM25.5823 14.4942C26.2263 14.1894 26.5015 13.4204 26.1969 12.7764C25.8921 12.1324 25.1231 11.8572 24.4791 12.1618L25.5823 14.4942ZM14.6756 12.4439C14.0145 12.7093 13.6937 13.4604 13.9591 14.1216C14.2245 14.7828 14.9756 15.1035 15.6368 14.8382L14.6756 12.4439ZM25.5165 10.8718C26.1776 10.6064 26.4984 9.85526 26.233 9.19411C25.9676 8.53296 25.2165 8.21215 24.5553 8.47758L25.5165 10.8718ZM24.5555 10.8718C25.2167 11.1372 25.9678 10.8163 26.233 10.1551C26.4984 9.49394 26.1775 8.74284 25.5163 8.47751L24.5555 10.8718ZM15.6366 4.51291C14.9754 4.24758 14.2243 4.5685 13.9591 5.22968C13.6937 5.89089 14.0147 6.64199 14.6758 6.90732L15.6366 4.51291ZM25.668 8.55193C25.0471 8.20281 24.2605 8.42324 23.9114 9.04428C23.5622 9.66532 23.7827 10.4518 24.4038 10.801L25.668 8.55193ZM28.5636 11.6596L29.1145 12.8261C29.5509 12.62 29.8357 12.1876 29.8528 11.7053C29.87 11.2231 29.6164 10.7716 29.1957 10.5351L28.5636 11.6596ZM24.4791 12.1618C23.835 12.4661 23.56 13.2346 23.8642 13.8789C24.1685 14.523 24.938 14.7984 25.5823 14.4942L24.4791 12.1618ZM24.0742 8.80909C23.5963 9.33732 23.6369 10.153 24.1651 10.6312C24.6933 11.1092 25.5091 11.0686 25.9872 10.5404L24.0742 8.80909ZM29.2602 5.00147L30.2167 5.8671C30.5088 5.54429 30.6185 5.09587 30.5081 4.67469C30.3978 4.2535 30.0826 3.91636 29.6696 3.77818L29.2602 5.00147ZM18.6788 1.45999L19.0881 0.236695C18.5835 0.0677569 18.0267 0.226203 17.6865 0.635615L18.6788 1.45999ZM14.1553 4.88574C13.7001 5.43373 13.7752 6.24705 14.3232 6.70233C14.8712 7.15763 15.6846 7.08248 16.1399 6.53449L14.1553 4.88574ZM4.78751 8.47751C4.12632 8.74284 3.80541 9.49394 4.07073 10.1551C4.33606 10.8163 5.08717 11.1372 5.74837 10.8718L4.78751 8.47751ZM15.628 6.90732C16.2892 6.64199 16.6101 5.89089 16.3447 5.22968C16.0795 4.5685 15.3284 4.24758 14.6672 4.51291L15.628 6.90732ZM5.90009 10.7992C6.52113 10.4501 6.74157 9.6636 6.39244 9.04256C6.0433 8.42152 5.25683 8.20109 4.63579 8.55021L5.90009 10.7992ZM1.74022 11.6579L1.10807 10.5333C0.687613 10.7697 0.434137 11.221 0.45101 11.7029C0.467883 12.1851 0.752268 12.6175 1.18824 12.8239L1.74022 11.6579ZM4.71596 14.494C5.35987 14.7988 6.12902 14.5239 6.43387 13.8799C6.73873 13.236 6.46385 12.467 5.81992 12.162L4.71596 14.494ZM5.74854 8.47758C5.08739 8.21215 4.33623 8.53296 4.0708 9.19411C3.80537 9.85526 4.12619 10.6064 4.78734 10.8718L5.74854 8.47758ZM14.667 14.8382C15.3282 15.1035 16.0793 14.7828 16.3447 14.1216C16.6101 13.4604 16.2894 12.7093 15.6282 12.4439L14.667 14.8382ZM4.30422 10.5323C4.77781 11.0645 5.59321 11.1119 6.12546 10.6384C6.65772 10.1649 6.70526 9.34944 6.23165 8.81719L4.30422 10.5323ZM1.74022 5.71011L1.23044 4.52512C0.849706 4.6889 0.570859 5.02564 0.480938 5.43023C0.391016 5.83483 0.500976 6.258 0.776502 6.56764L1.74022 5.71011ZM11.6199 1.45999L12.6125 0.636096C12.2472 0.195931 11.6356 0.0489397 11.1101 0.274999L11.6199 1.45999ZM14.155 6.53401C14.6099 7.08223 15.4233 7.15775 15.9715 6.70273C16.5197 6.2477 16.5953 5.43441 16.1402 4.88622L14.155 6.53401ZM16.4376 13.6428C16.4376 12.9303 15.86 12.3528 15.1476 12.3528C14.4352 12.3528 13.8576 12.9303 13.8576 13.6428H16.4376ZM15.1476 25.54L14.667 26.7371C15.0645 26.8967 15.5154 26.8486 15.8702 26.6086C16.225 26.3687 16.4376 25.9683 16.4376 25.54H15.1476ZM5.26794 21.5737H3.97794C3.97794 22.1005 4.29837 22.5745 4.78734 22.7708L5.26794 21.5737ZM6.55794 13.328C6.55794 12.6156 5.98038 12.038 5.26794 12.038C4.5555 12.038 3.97794 12.6156 3.97794 13.328H6.55794ZM15.9302 14.6665C16.4966 14.2344 16.6053 13.4248 16.1731 12.8584C15.741 12.292 14.9314 12.1833 14.365 12.6156L15.9302 14.6665ZM11.6199 16.3328L11.0683 17.499C11.5043 17.7052 12.0189 17.651 12.4025 17.3583L11.6199 16.3328ZM5.81992 12.162C5.1759 11.8574 4.40649 12.1324 4.10183 12.7764C3.79717 13.4204 4.07194 14.1892 4.71596 14.494L5.81992 12.162ZM13.8662 13.641V25.54H16.4462V13.641H13.8662ZM15.6368 26.7371L25.5165 22.7708L24.5553 20.3766L14.6756 24.3429L15.6368 26.7371ZM26.3259 21.5737V13.328H23.7459V21.5737H26.3259ZM14.3729 14.666L17.8955 17.3578L19.4621 15.3079L15.9395 12.6161L14.3729 14.666ZM19.2304 17.499L25.5823 14.4942L24.4791 12.1618L18.1272 15.1667L19.2304 17.499ZM15.6368 14.8382L25.5165 10.8718L24.5553 8.47758L14.6756 12.4439L15.6368 14.8382ZM25.5163 8.47751L15.6366 4.51291L14.6758 6.90732L24.5555 10.8718L25.5163 8.47751ZM24.4038 10.801L27.9315 12.7841L29.1957 10.5351L25.668 8.55193L24.4038 10.801ZM28.0127 10.4931L24.4791 12.1618L25.5823 14.4942L29.1145 12.8261L28.0127 10.4931ZM25.9872 10.5404L30.2167 5.8671L28.3037 4.13585L24.0742 8.80909L25.9872 10.5404ZM29.6696 3.77818L19.0881 0.236695L18.2694 2.68329L28.8509 6.22477L29.6696 3.77818ZM17.6865 0.635615L14.1553 4.88574L16.1399 6.53449L19.671 2.28437L17.6865 0.635615ZM5.74837 10.8718L15.628 6.90732L14.6672 4.51291L4.78751 8.47751L5.74837 10.8718ZM4.63579 8.55021L1.10807 10.5333L2.37237 12.7824L5.90009 10.7992L4.63579 8.55021ZM1.18824 12.8239L4.71596 14.494L5.81992 12.162L2.2922 10.4919L1.18824 12.8239ZM4.78734 10.8718L14.667 14.8382L15.6282 12.4439L5.74854 8.47758L4.78734 10.8718ZM6.23165 8.81719L2.70393 4.85259L0.776502 6.56764L4.30422 10.5323L6.23165 8.81719ZM2.24999 6.89511L12.1297 2.64499L11.1101 0.274999L1.23044 4.52512L2.24999 6.89511ZM10.6273 2.28389L14.155 6.53401L16.1402 4.88622L12.6125 0.636096L10.6273 2.28389ZM13.8576 13.6428V25.54H16.4376V13.6428H13.8576ZM15.6282 24.3429L5.74854 20.3766L4.78734 22.7708L14.667 26.7371L15.6282 24.3429ZM6.55794 21.5737V13.328H3.97794V21.5737H6.55794ZM14.365 12.6156L10.8374 15.3074L12.4025 17.3583L15.9302 14.6665L14.365 12.6156ZM12.1715 15.1667L5.81992 12.162L4.71596 14.494L11.0683 17.499L12.1715 15.1667Z" fill="#5A3DE6"/>
</svg>
