<svg width="24" height="24" viewBox="0 0 24 24" fill="none" xmlns="http://www.w3.org/2000/svg">
<path d="M8.17603 14.2757C7.72258 13.8221 6.9873 13.8221 6.5338 14.2757C6.08031 14.7292 6.08031 15.4644 6.5338 15.9179L8.17603 14.2757ZM10.4516 18.1935L9.63055 19.0147C10.0841 19.4682 10.8192 19.4682 11.2727 19.0147L10.4516 18.1935ZM17.4661 12.8211C17.9197 12.3676 17.9197 11.6324 17.4661 11.1789C17.0126 10.7254 16.2775 10.7254 15.824 11.1789L17.4661 12.8211ZM0.0303343 7.56915C-0.114684 8.19391 0.274215 8.81794 0.898944 8.96299C1.52369 9.10792 2.14771 8.71908 2.29272 8.09433L0.0303343 7.56915ZM2.70988 1.16129V0C2.16969 0 1.70084 0.372495 1.57869 0.898699L2.70988 1.16129ZM12 2.32258C12.6413 2.32258 13.1613 1.80265 13.1613 1.16129C13.1613 0.519933 12.6413 0 12 0V2.32258ZM2.32279 7.83174C2.32279 7.19038 1.80287 6.67045 1.16153 6.67045C0.520186 6.67045 0.000265019 7.19038 0.000265019 7.83174H2.32279ZM1.16153 22.8387H0.000265019C0.000265019 23.4801 0.520186 24 1.16153 24V22.8387ZM22.8385 22.8387V24C23.4798 24 23.9997 23.4801 23.9997 22.8387H22.8385ZM23.9997 7.83174C23.9997 7.19038 23.4798 6.67045 22.8385 6.67045C22.1971 6.67045 21.6772 7.19038 21.6772 7.83174H23.9997ZM1.16153 6.67045C0.520186 6.67045 0.000265019 7.19038 0.000265019 7.83174C0.000265019 8.4731 0.520186 8.99303 1.16153 8.99303V6.67045ZM12 8.99303C12.6413 8.99303 13.1613 8.4731 13.1613 7.83174C13.1613 7.19038 12.6413 6.67045 12 6.67045V8.99303ZM10.8387 7.83174C10.8387 8.4731 11.3587 8.99303 12 8.99303C12.6413 8.99303 13.1613 8.4731 13.1613 7.83174H10.8387ZM13.1613 1.16129C13.1613 0.519933 12.6413 0 12 0C11.3587 0 10.8387 0.519933 10.8387 1.16129H13.1613ZM12 6.67045C11.3587 6.67045 10.8387 7.19038 10.8387 7.83174C10.8387 8.4731 11.3587 8.99303 12 8.99303V6.67045ZM22.8385 8.99303C23.4798 8.99303 23.9997 8.4731 23.9997 7.83174C23.9997 7.19038 23.4798 6.67045 22.8385 6.67045V8.99303ZM13.1613 7.83174C13.1613 7.19038 12.6413 6.67045 12 6.67045C11.3587 6.67045 10.8387 7.19038 10.8387 7.83174H13.1613ZM10.8387 10.4516C10.8387 11.093 11.3587 11.6129 12 11.6129C12.6413 11.6129 13.1613 11.093 13.1613 10.4516H10.8387ZM12 0C11.3587 0 10.8387 0.519933 10.8387 1.16129C10.8387 1.80265 11.3587 2.32258 12 2.32258V0ZM21.2901 1.16129L22.4213 0.898699C22.2992 0.372495 21.8303 0 21.2901 0V1.16129ZM21.7072 8.09433C21.8523 8.71908 22.4763 9.10792 23.1011 8.96299C23.7258 8.81794 24.1146 8.19391 23.9697 7.56915L21.7072 8.09433ZM6.5338 15.9179L9.63055 19.0147L11.2727 17.3724L8.17603 14.2757L6.5338 15.9179ZM11.2727 19.0147L17.4661 12.8211L15.824 11.1789L9.63055 17.3724L11.2727 19.0147ZM2.29272 8.09433L3.84108 1.42388L1.57869 0.898699L0.0303343 7.56915L2.29272 8.09433ZM2.70988 2.32258H12V0H2.70988V2.32258ZM0.000265019 7.83174V22.8387H2.32279V7.83174H0.000265019ZM1.16153 24H22.8385V21.6774H1.16153V24ZM23.9997 22.8387V7.83174H21.6772V22.8387H23.9997ZM1.16153 8.99303H12V6.67045H1.16153V8.99303ZM13.1613 7.83174V1.16129H10.8387V7.83174H13.1613ZM12 8.99303H22.8385V6.67045H12V8.99303ZM10.8387 7.83174V10.4516H13.1613V7.83174H10.8387ZM12 2.32258H21.2901V0H12V2.32258ZM20.1589 1.42388L21.7072 8.09433L23.9697 7.56915L22.4213 0.898699L20.1589 1.42388Z" fill="#5A3DE6"/>
</svg>
