<svg width="26" height="26" viewBox="0 0 26 26" fill="none" xmlns="http://www.w3.org/2000/svg">
<path d="M15.6667 24.5V16.6213H10.3333V24.5M22.3333 9.76423V18.197C22.3333 20.4032 22.3333 21.5063 21.8973 22.349C21.5139 23.0902 20.902 23.693 20.1493 24.0706C19.2936 24.5 18.1736 24.5 15.9333 24.5H10.0667C7.82645 24.5 6.70635 24.5 5.85071 24.0706C5.09805 23.693 4.48613 23.0902 4.10264 22.349C3.66667 21.5063 3.66667 20.4032 3.66667 18.197V9.76337M25 12.6819L17.7557 4.7558C16.1081 2.9532 15.2844 2.05188 14.3141 1.71915C13.4621 1.42689 12.5347 1.42695 11.6825 1.71933C10.7124 2.05222 9.88881 2.95364 8.24152 4.7565L1 12.6819" stroke="#878787" stroke-width="2" stroke-linecap="round" stroke-linejoin="round"/>
</svg>
