<svg width="25" height="24" viewBox="0 0 25 24" fill="none" xmlns="http://www.w3.org/2000/svg">
<g clip-path="url(#clip0_1193_33)">
<path fill-rule="evenodd" clip-rule="evenodd" d="M13.079 0.5C12.4321 0.5 11.8364 0.660775 11.1842 0.930496C10.5544 1.19094 9.82299 1.57481 8.91216 2.0528L6.7004 3.21348C5.58253 3.80009 4.68793 4.26955 3.99719 4.73083C3.28159 5.20873 2.73042 5.71192 2.32905 6.39354C1.92902 7.07288 1.74906 7.80848 1.66276 8.68449C1.579 9.53481 1.579 10.5805 1.57901 11.8958V12.1042C1.579 13.4194 1.579 14.4652 1.66276 15.3155C1.74906 16.1916 1.92902 16.9271 2.32905 17.6064C2.73042 18.2881 3.28159 18.7913 3.99719 19.2692C4.68793 19.7305 5.58252 20.1999 6.70038 20.7865L8.91206 21.9471C9.82294 22.4252 10.5544 22.809 11.1842 23.0695C11.8364 23.3392 12.4321 23.5 13.079 23.5C13.7259 23.5 14.3217 23.3392 14.9738 23.0695C15.6036 22.809 16.3351 22.4252 17.2459 21.9472L19.4576 20.7865C20.5755 20.1999 21.4701 19.7305 22.1608 19.2692C22.8765 18.7913 23.4276 18.2881 23.829 17.6064C24.229 16.9271 24.4089 16.1916 24.4952 15.3155C24.579 14.4652 24.579 13.4195 24.579 12.1043V11.8957C24.579 10.5805 24.579 9.5348 24.4952 8.68449C24.4089 7.80848 24.229 7.07288 23.829 6.39354C23.4276 5.71192 22.8765 5.20873 22.1608 4.73083C21.4701 4.26955 20.5755 3.80009 19.4576 3.21347L17.2459 2.05281C16.3351 1.57482 15.6036 1.19095 14.9738 0.930496C14.3217 0.660775 13.7259 0.5 13.079 0.5ZM9.62452 3.49116C10.5763 2.99167 11.2433 2.64253 11.7974 2.41334C12.3368 2.19028 12.7158 2.10465 13.079 2.10465C13.4422 2.10465 13.8212 2.19028 14.3606 2.41334C14.9147 2.64253 15.5817 2.99167 16.5335 3.49116L18.673 4.61393C19.8388 5.22568 20.6578 5.65662 21.2697 6.06527C21.5716 6.26688 21.8087 6.45409 22.0003 6.64233L18.4373 8.42385L9.3444 3.63815L9.62452 3.49116ZM7.67097 4.51632L7.48498 4.61393C6.31927 5.22567 5.50028 5.65662 4.88836 6.06527C4.58646 6.26688 4.34924 6.45409 4.15773 6.64233L13.079 11.103L16.6704 9.30728L7.89138 4.68674C7.80608 4.64185 7.73222 4.58376 7.67097 4.51632ZM3.38444 8.04975C3.33041 8.27855 3.28958 8.53837 3.25968 8.84181C3.18456 9.60436 3.18366 10.5712 3.18366 11.9374V12.0626C3.18366 13.4288 3.18456 14.3956 3.25968 15.1582C3.33315 15.904 3.47273 16.3863 3.71177 16.7922C3.94948 17.1959 4.2933 17.5373 4.88836 17.9347C5.50028 18.3434 6.31927 18.7743 7.48498 19.3861L9.62452 20.5088C10.5763 21.0083 11.2433 21.3575 11.7974 21.5866C11.9724 21.659 12.1306 21.7169 12.2767 21.7622V12.4958L3.38444 8.04975ZM13.8813 21.7622C14.0275 21.7169 14.1856 21.659 14.3606 21.5866C14.9147 21.3575 15.5817 21.0083 16.5335 20.5088L18.673 19.3861C19.8388 18.7743 20.6578 18.3434 21.2697 17.9347C21.8647 17.5373 22.2085 17.1959 22.4462 16.7922C22.6853 16.3863 22.8249 15.904 22.8983 15.1582C22.9735 14.3956 22.9744 13.4288 22.9744 12.0626V11.9374C22.9744 10.5712 22.9735 9.60436 22.8983 8.84181C22.8685 8.53836 22.8276 8.27855 22.7736 8.04973L19.2302 9.82144V13.0698C19.2302 13.5129 18.8709 13.8721 18.4278 13.8721C17.9848 13.8721 17.6255 13.5129 17.6255 13.0698V10.6237L13.8813 12.4958V21.7622Z" fill="#878787"/>
</g>
<defs>
<clipPath id="clip0_1193_33">
<rect width="24" height="24" fill="white" transform="translate(0.579041)"/>
</clipPath>
</defs>
</svg>
