<svg width="40" height="40" viewBox="0 0 40 40" fill="none" xmlns="http://www.w3.org/2000/svg">
<rect width="40" height="40" rx="20" fill="url(#paint0_linear_1240_79)"/>
<path fill-rule="evenodd" clip-rule="evenodd" d="M20.5 9C19.8531 9 19.2574 9.16078 18.6052 9.4305C17.9754 9.69094 17.244 10.0748 16.3331 10.5528L14.1214 11.7135C13.0035 12.3001 12.1089 12.7696 11.4182 13.2308C10.7026 13.7087 10.1514 14.2119 9.75004 14.8935C9.35001 15.5729 9.17005 16.3085 9.08375 17.1845C8.99999 18.0348 8.99999 19.0805 9 20.3958V20.6042C8.99999 21.9194 8.99999 22.9652 9.08375 23.8155C9.17005 24.6916 9.35001 25.4271 9.75004 26.1064C10.1514 26.7881 10.7026 27.2913 11.4182 27.7692C12.1089 28.2305 13.0035 28.6999 14.1214 29.2865L16.3331 30.4471C17.2439 30.9252 17.9754 31.309 18.6052 31.5695C19.2574 31.8392 19.8531 32 20.5 32C21.1469 32 21.7426 31.8392 22.3948 31.5695C23.0245 31.309 23.7561 30.9252 24.6669 30.4472L26.8786 29.2865C27.9965 28.6999 28.891 28.2305 29.5818 27.7692C30.2975 27.2913 30.8486 26.7881 31.25 26.1064C31.65 25.4271 31.8299 24.6916 31.9162 23.8155C32 22.9652 32 21.9195 32 20.6043V20.3957C32 19.0805 32 18.0348 31.9162 17.1845C31.8299 16.3085 31.65 15.5729 31.25 14.8935C30.8486 14.2119 30.2975 13.7087 29.5818 13.2308C28.891 12.7696 27.9965 12.3001 26.8786 11.7135L24.6669 10.5528C23.7561 10.0748 23.0245 9.69095 22.3948 9.4305C21.7426 9.16078 21.1469 9 20.5 9ZM17.0455 11.9912C17.9973 11.4917 18.6643 11.1425 19.2184 10.9133C19.7578 10.6903 20.1368 10.6047 20.5 10.6047C20.8632 10.6047 21.2422 10.6903 21.7816 10.9133C22.3357 11.1425 23.0027 11.4917 23.9545 11.9912L26.094 13.1139C27.2598 13.7257 28.0788 14.1566 28.6907 14.5653C28.9926 14.7669 29.2297 14.9541 29.4213 15.1423L25.8583 16.9239L16.7654 12.1382L17.0455 11.9912ZM15.092 13.0163L14.906 13.1139C13.7403 13.7257 12.9213 14.1566 12.3093 14.5653C12.0074 14.7669 11.7702 14.9541 11.5787 15.1423L20.5 19.603L24.0914 17.8073L15.3124 13.1867C15.2271 13.1419 15.1532 13.0838 15.092 13.0163ZM10.8054 16.5497C10.7514 16.7785 10.7106 17.0384 10.6807 17.3418C10.6056 18.1044 10.6047 19.0712 10.6047 20.4374V20.5626C10.6047 21.9288 10.6056 22.8956 10.6807 23.6582C10.7541 24.404 10.8937 24.8863 11.1328 25.2922C11.3705 25.6959 11.7143 26.0373 12.3093 26.4347C12.9213 26.8434 13.7403 27.2743 14.906 27.8861L17.0455 29.0088C17.9973 29.5083 18.6643 29.8575 19.2184 30.0866C19.3934 30.159 19.5515 30.2169 19.6977 30.2622V20.9958L10.8054 16.5497ZM21.3023 30.2622C21.4485 30.2169 21.6066 30.159 21.7816 30.0866C22.3357 29.8575 23.0027 29.5083 23.9545 29.0088L26.094 27.8861C27.2598 27.2743 28.0788 26.8434 28.6907 26.4347C29.2857 26.0373 29.6295 25.6959 29.8672 25.2922C30.1063 24.8863 30.2459 24.404 30.3193 23.6582C30.3945 22.8956 30.3953 21.9288 30.3953 20.5626V20.4374C30.3953 19.0712 30.3945 18.1044 30.3193 17.3418C30.2894 17.0384 30.2486 16.7785 30.1946 16.5497L26.6512 18.3214V21.5698C26.6512 22.0129 26.2919 22.3721 25.8488 22.3721C25.4057 22.3721 25.0465 22.0129 25.0465 21.5698V19.1237L21.3023 20.9958V30.2622Z" fill="white"/>
<defs>
<linearGradient id="paint0_linear_1240_79" x1="0" y1="20" x2="40" y2="20" gradientUnits="userSpaceOnUse">
<stop stop-color="#5A3DE6"/>
<stop offset="1" stop-color="#3F6AC9"/>
</linearGradient>
</defs>
</svg>
