<svg width="40" height="40" viewBox="0 0 40 40" fill="none" xmlns="http://www.w3.org/2000/svg">
<rect width="40" height="40" rx="20" fill="url(#paint0_linear_1240_81)"/>
<path d="M31 19.6513C31.0035 21.7664 30.3539 23.8342 29.1349 25.589C28.1295 27.0415 26.7701 28.2316 25.1768 29.0542C23.5835 29.8768 21.8055 30.3064 20 30.3051C18.1945 30.3064 16.4165 29.8768 14.8232 29.0542C13.2299 28.2316 11.8705 27.0415 10.8651 25.589C9.90778 24.2069 9.2981 22.6267 9.08495 20.9753C8.8718 19.3238 9.06111 17.6469 9.63769 16.0791C10.2143 14.5112 11.1621 13.096 12.4052 11.9469C13.6483 10.7978 15.152 9.94674 16.7959 9.46196C18.4398 8.97718 20.1782 8.87216 21.8715 9.15533C23.5649 9.4385 25.1662 10.102 26.5471 11.0926C27.928 12.0831 29.05 13.3733 29.8233 14.8596C30.5966 16.3459 30.9996 17.987 31 19.6513Z" stroke="white" stroke-width="2"/>
<path d="M21.6885 15.6592L22.3664 14.9444L21.6885 15.6592C21.8557 15.8177 21.9933 15.9962 22.0996 16.1875H21.8546C21.7547 16.0122 21.6288 15.8514 21.4803 15.7106C21.3355 15.5733 21.1735 15.4588 21 15.3686V15.2062C21.2558 15.3172 21.4893 15.4703 21.6885 15.6592ZM14.0789 28.1255L14.1067 28.0371C14.6514 28.4183 15.2364 28.7464 15.8531 29.0154C16.8507 29.4507 17.9142 29.7243 19 29.8279V29.9545C17.865 29.8498 16.755 29.5659 15.7169 29.113C15.0576 28.8254 14.4356 28.4732 13.8602 28.0639L14.0789 28.1255ZM21 29.9545V29.8279C22.0857 29.7243 23.1492 29.4507 24.1469 29.0154C24.7633 28.7465 25.3481 28.4186 25.8926 28.0375L25.9208 28.1271L26.1374 28.066C25.5626 28.4744 24.9413 28.8258 24.283 29.113C23.2449 29.5659 22.1349 29.8498 21 29.9545ZM24.3611 23.603C25.0008 23.7365 25.6051 23.9971 26.1319 24.3694C26.2777 24.4724 26.416 24.5828 26.5464 24.7L26.4264 24.8331C25.8624 24.2987 25.1501 23.9141 24.3611 23.736V23.603ZM22.3611 23.625H17.6388V23.5H22.3611V23.625ZM15.6388 23.6027V23.7361C15.0711 23.8642 14.5311 24.1014 14.0532 24.4388C13.883 24.559 13.7225 24.6906 13.5729 24.8324L13.4531 24.6994C13.5834 24.5824 13.7216 24.472 13.8673 24.3691C14.3943 23.9967 14.9988 23.7361 15.6388 23.6027ZM21.4803 18.6644C21.6288 18.5236 21.7547 18.3628 21.8546 18.1875H22.0996C21.9933 18.3788 21.8557 18.5573 21.6885 18.7158C21.4893 18.9047 21.2558 19.0578 21 19.1688V19.0064C21.1735 18.9162 21.3355 18.8017 21.4803 18.6644ZM18.3114 18.7158C18.1442 18.5573 18.0066 18.3788 17.9004 18.1875H18.1454C18.2452 18.3628 18.3712 18.5236 18.5196 18.6644C18.6644 18.8017 18.8264 18.9162 19 19.0064V19.1688C18.7442 19.0578 18.5106 18.9047 18.3114 18.7158ZM18.5196 15.7106C18.3712 15.8514 18.2452 16.0122 18.1454 16.1875H17.9004C18.0066 15.9962 18.1442 15.8177 18.3114 15.6592C18.5106 15.4703 18.7442 15.3172 19 15.2062V15.3686C18.8264 15.4588 18.6644 15.5733 18.5196 15.7106Z" fill="#878787" stroke="white" stroke-width="2"/>
<defs>
<linearGradient id="paint0_linear_1240_81" x1="0" y1="20" x2="40" y2="20" gradientUnits="userSpaceOnUse">
<stop stop-color="#5A3DE6"/>
<stop offset="1" stop-color="#3F6AC9"/>
</linearGradient>
</defs>
</svg>
