<svg width="24" height="25" viewBox="0 0 24 25" fill="none" xmlns="http://www.w3.org/2000/svg">
<path d="M23 12.6434C23.0034 14.8065 22.3648 16.9213 21.1661 18.716C20.1776 20.2015 18.8409 21.4187 17.2744 22.26C15.7078 23.1012 13.9595 23.5406 12.1843 23.5393C10.409 23.5406 8.66082 23.1012 7.09424 22.26C5.52765 21.4187 4.19099 20.2015 3.20246 18.716C2.26116 17.3025 1.6617 15.6864 1.45212 13.9974C1.24254 12.3084 1.42867 10.5934 1.9956 8.98996C2.56252 7.38648 3.49447 5.93912 4.71673 4.76389C5.93899 3.58866 7.41757 2.71826 9.03393 2.22246C10.6503 1.72666 12.3595 1.61926 14.0245 1.90886C15.6894 2.19846 17.2639 2.87701 18.6217 3.89012C19.9794 4.90322 21.0827 6.22269 21.843 7.74277C22.6034 9.26284 22.9996 10.9412 23 12.6434Z" stroke="#878787" stroke-width="2"/>
<path d="M13.3167 9.625C13.3167 9.92337 13.1974 10.2095 12.985 10.4205C12.7726 10.6315 12.4846 10.75 12.1843 10.75V13C13.0853 13 13.9493 12.6444 14.5864 12.0115C15.2235 11.3785 15.5814 10.5201 15.5814 9.625H13.3167ZM12.1843 10.75C11.884 10.75 11.596 10.6315 11.3836 10.4205C11.1712 10.2095 11.0519 9.92337 11.0519 9.625H8.78721C8.78721 10.5201 9.14512 11.3785 9.7822 12.0115C10.4193 12.6444 11.2833 13 12.1843 13V10.75ZM11.0519 9.625C11.0519 9.32663 11.1712 9.04048 11.3836 8.8295C11.596 8.61853 11.884 8.5 12.1843 8.5V6.25C11.2833 6.25 10.4193 6.60558 9.7822 7.23851C9.14512 7.87145 8.78721 8.72989 8.78721 9.625H11.0519ZM12.1843 8.5C12.4846 8.5 12.7726 8.61853 12.985 8.8295C13.1974 9.04048 13.3167 9.32663 13.3167 9.625H15.5814C15.5814 8.72989 15.2235 7.87145 14.5864 7.23851C13.9493 6.60558 13.0853 6.25 12.1843 6.25V8.5ZM4.44574 19.588L3.35981 19.2674L3.1843 19.8557L3.58628 20.3204L4.44574 19.588ZM19.9228 19.588L20.7834 20.3204L21.1843 19.8557L21.0088 19.2674L19.9228 19.588ZM8.78721 17.5H15.5814V15.25H8.78721V17.5ZM8.78721 15.25C7.56772 15.2496 6.3807 15.6404 5.40279 16.3643C4.42488 17.0881 3.70834 18.1063 3.35981 19.2674L5.53055 19.9086C5.74 19.2123 6.17009 18.6018 6.75686 18.1678C7.34362 17.7338 8.05571 17.4996 8.78721 17.5V15.25ZM12.1843 22C10.877 22.0015 9.5849 21.7211 8.39724 21.1782C7.20959 20.6354 6.15464 19.8429 5.30521 18.8556L3.58628 20.3204C4.64831 21.5539 5.96694 22.5441 7.45129 23.2225C8.93564 23.9009 10.5504 24.2514 12.1843 24.25V22ZM15.5814 17.5C17.118 17.5 18.4191 18.5147 18.838 19.9097L21.0088 19.2674C20.6603 18.1065 19.9428 17.0885 18.9651 16.3646C17.9874 15.6408 16.8007 15.2499 15.5814 15.25V17.5ZM19.0634 18.8556C18.214 19.8429 17.159 20.6354 15.9713 21.1782C14.7837 21.7211 13.4916 22.0015 12.1843 22V24.25C13.8182 24.2514 15.4329 23.9009 16.9173 23.2225C18.4017 22.5441 19.7214 21.5539 20.7834 20.3204L19.0634 18.8556Z" fill="#878787"/>
</svg>
