<svg width="22" height="20" viewBox="0 0 22 20" fill="none" xmlns="http://www.w3.org/2000/svg">
<path d="M7 16.7192C5.33865 18.1353 3.81983 19 1 19C2 18 3.27088 16.65 3.80115 14.5528C2.06674 13.114 1 11.1567 1 9C1 4.58172 5.47715 1 11 1C16.0995 1 20.3075 4.05369 20.9226 8" stroke="black" stroke-width="2" stroke-linecap="round" stroke-linejoin="round"/>
<path d="M15 17.8889C11.6863 17.8889 9 15.899 9 13.4444C9 10.9898 11.6863 9 15 9C18.3137 9 21 10.9898 21 13.4444C21 14.6426 20.36 15.73 19.3193 16.5293C19.6375 17.6944 20.4 18.4444 21 19C19.2 19 18.2835 18.4563 17.2077 17.5784C16.5244 17.7788 15.7795 17.8889 15 17.8889Z" stroke="black" stroke-width="2" stroke-linecap="round" stroke-linejoin="round"/>
</svg>
