<svg width="24" height="25" viewBox="0 0 24 25" fill="none" xmlns="http://www.w3.org/2000/svg">
<path fill-rule="evenodd" clip-rule="evenodd" d="M12.5 1C11.8531 1 11.2574 1.16078 10.6052 1.4305C9.97543 1.69094 9.24398 2.07481 8.33315 2.5528L6.12139 3.71348C5.00352 4.30009 4.10892 4.76955 3.41818 5.23083C2.70258 5.70873 2.15141 6.21192 1.75004 6.89354C1.35001 7.57288 1.17005 8.30848 1.08375 9.18449C0.99999 10.0348 0.99999 11.0805 1 12.3958V12.6042C0.99999 13.9194 0.99999 14.9652 1.08375 15.8155C1.17005 16.6916 1.35001 17.4271 1.75004 18.1064C2.15141 18.7881 2.70258 19.2913 3.41818 19.7692C4.10892 20.2305 5.00351 20.6999 6.12137 21.2865L8.33305 22.4471C9.24393 22.9252 9.97541 23.309 10.6052 23.5695C11.2574 23.8392 11.8531 24 12.5 24C13.1469 24 13.7426 23.8392 14.3948 23.5695C15.0245 23.309 15.7561 22.9252 16.6669 22.4472L18.8786 21.2865C19.9965 20.6999 20.891 20.2305 21.5818 19.7692C22.2975 19.2913 22.8486 18.7881 23.25 18.1064C23.65 17.4271 23.8299 16.6916 23.9162 15.8155C24 14.9652 24 13.9195 24 12.6043V12.3957C24 11.0805 24 10.0348 23.9162 9.18449C23.8299 8.30848 23.65 7.57288 23.25 6.89354C22.8486 6.21192 22.2975 5.70873 21.5818 5.23083C20.891 4.76955 19.9965 4.30009 18.8786 3.71347L16.6669 2.55281C15.7561 2.07482 15.0245 1.69095 14.3948 1.4305C13.7426 1.16078 13.1469 1 12.5 1ZM9.04551 3.99116C9.9973 3.49167 10.6643 3.14253 11.2184 2.91334C11.7578 2.69028 12.1368 2.60465 12.5 2.60465C12.8632 2.60465 13.2422 2.69028 13.7816 2.91334C14.3357 3.14253 15.0027 3.49167 15.9545 3.99116L18.094 5.11393C19.2598 5.72568 20.0788 6.15662 20.6907 6.56527C20.9926 6.76688 21.2297 6.95409 21.4213 7.14233L17.8583 8.92385L8.76539 4.13815L9.04551 3.99116ZM7.09196 5.01632L6.90597 5.11393C5.74026 5.72567 4.92127 6.15662 4.30935 6.56527C4.00745 6.76688 3.77023 6.95409 3.57872 7.14233L12.5 11.603L16.0914 9.80728L7.31237 5.18674C7.22707 5.14185 7.15321 5.08376 7.09196 5.01632ZM2.80543 8.54975C2.7514 8.77855 2.71057 9.03837 2.68067 9.34181C2.60555 10.1044 2.60465 11.0712 2.60465 12.4374V12.5626C2.60465 13.9288 2.60555 14.8956 2.68067 15.6582C2.75414 16.404 2.89372 16.8863 3.13276 17.2922C3.37047 17.6959 3.71429 18.0373 4.30935 18.4347C4.92127 18.8434 5.74026 19.2743 6.90597 19.8861L9.04551 21.0088C9.9973 21.5083 10.6643 21.8575 11.2184 22.0866C11.3934 22.159 11.5515 22.2169 11.6977 22.2622V12.9958L2.80543 8.54975ZM13.3023 22.2622C13.4485 22.2169 13.6066 22.159 13.7816 22.0866C14.3357 21.8575 15.0027 21.5083 15.9545 21.0088L18.094 19.8861C19.2598 19.2743 20.0788 18.8434 20.6907 18.4347C21.2857 18.0373 21.6295 17.6959 21.8672 17.2922C22.1063 16.8863 22.2459 16.404 22.3193 15.6582C22.3945 14.8956 22.3953 13.9288 22.3953 12.5626V12.4374C22.3953 11.0712 22.3945 10.1044 22.3193 9.34181C22.2894 9.03836 22.2486 8.77855 22.1946 8.54973L18.6512 10.3214V13.5698C18.6512 14.0129 18.2919 14.3721 17.8488 14.3721C17.4057 14.3721 17.0465 14.0129 17.0465 13.5698V11.1237L13.3023 12.9958V22.2622Z" fill="black"/>
</svg>
