<svg width="26" height="23" viewBox="0 0 26 23" fill="none" xmlns="http://www.w3.org/2000/svg">
<path d="M8.99976 20.6455C8.99976 21.1046 8.63073 21.4672 8.18726 21.4672C7.74378 21.4672 7.37476 21.1046 7.37476 20.6455C7.37476 20.1864 7.74378 19.8237 8.18726 19.8237C8.63073 19.8237 8.99976 20.1864 8.99976 20.6455Z" fill="black" stroke="black" stroke-width="2.5"/>
<path d="M21.3752 20.6455C21.3752 21.1046 21.0062 21.4672 20.5627 21.4672C20.1193 21.4672 19.7502 21.1046 19.7502 20.6455C19.7502 20.1864 20.1193 19.8237 20.5627 19.8237C21.0062 19.8237 21.3752 20.1864 21.3752 20.6455Z" fill="black" stroke="black" stroke-width="2.5"/>
<path d="M2 2H4.75L5.575 6.14346M5.575 6.14346L7.5 15.8115H21.25L24 6.14346H5.575Z" stroke="black" stroke-width="2.5" stroke-linecap="round" stroke-linejoin="round"/>
</svg>
