<svg width="26" height="28" viewBox="0 0 33 33" fill="none" xmlns="http://www.w3.org/2000/svg">
<path d="M23.8735 13.8678L13.9442 23.7967C13.3045 24.4364 12.5702 24.9129 11.7849 25.2314C10.6075 25.7088 9.31492 25.8291 8.07953 25.5896C6.84376 25.3502 5.67033 24.7556 4.71095 23.7968C4.07165 23.1575 3.59554 22.4231 3.27666 21.6375C2.79929 20.4601 2.67898 19.1675 2.91845 17.9325C3.15831 16.6967 3.75244 15.5232 4.711 14.564L15.8197 3.45531C16.2102 3.06517 16.6563 2.77554 17.1341 2.582C17.8505 2.29117 18.6389 2.218 19.3907 2.36358C20.1436 2.50998 20.8562 2.87053 21.4413 3.45531C21.8314 3.84545 22.1207 4.29159 22.3146 4.76972C22.6054 5.48569 22.6786 6.27374 22.5326 7.02634C22.3866 7.77895 22.0261 8.49104 21.4413 9.07702L10.6632 19.855C10.5246 19.9933 10.3692 20.0937 10.2018 20.1618C9.95187 20.2631 9.67351 20.2895 9.40915 20.2382C9.14402 20.186 8.89755 20.0618 8.69001 19.855C8.55143 19.7165 8.45135 19.5615 8.38359 19.3941C8.2816 19.1441 8.25552 18.8654 8.30692 18.6014C8.35871 18.3366 8.48329 18.0898 8.69001 17.8823L18.2888 8.28312L16.6692 6.66344L7.07 16.2622C6.71256 16.6196 6.44082 17.0378 6.26057 17.4824C5.99036 18.1493 5.92337 18.8755 6.05812 19.5716C6.19205 20.2678 6.53313 20.9382 7.07 21.4747C7.42782 21.8329 7.84558 22.1046 8.28981 22.2845C8.9571 22.5551 9.68286 22.6217 10.3794 22.487C11.0751 22.3531 11.746 22.0124 12.2829 21.4747L23.0613 10.697C23.6707 10.0873 24.1316 9.37829 24.4377 8.62338C24.8967 7.49042 25.0108 6.25465 24.7819 5.07028C24.5533 3.88668 23.9763 2.74978 23.0614 1.83524C22.4517 1.22592 21.7427 0.764955 20.9878 0.458978C19.8548 -0.000451431 18.619 -0.114147 17.4346 0.114392C16.251 0.343314 15.1142 0.920322 14.1996 1.8353L3.09127 12.9442C2.23196 13.8023 1.58452 14.7998 1.15391 15.8619C0.507665 17.4563 0.346446 19.1962 0.669212 20.8638C0.991212 22.5305 1.80217 24.1284 3.09132 25.4167C3.94981 26.276 4.94692 26.9235 6.00945 27.3541C7.60337 28 9.34374 28.1611 11.0109 27.8388C12.6777 27.5164 14.2755 26.7058 15.5638 25.4167L25.4932 15.4874L23.8735 13.8678Z" fill="white"/>
</svg>
